<mxfile host="app.diagrams.net" modified="2022-05-20T06:06:22.297Z" agent="5.0 (Windows NT 10.0; Win64; x64) AppleWebKit/537.36 (KHTML, like Gecko) Chrome/101.0.4951.67 Safari/537.36" etag="3ULc78CwB7_NiNys79TT" version="18.0.8" type="github">
  <diagram id="v9VeEew0eSVK_gECYCmD" name="Page-1">
    <mxGraphModel dx="1422" dy="1963" grid="1" gridSize="10" guides="1" tooltips="1" connect="1" arrows="0" fold="1" page="1" pageScale="1" pageWidth="827" pageHeight="1169" math="0" shadow="0">
      <root>
        <mxCell id="0" />
        <mxCell id="1" parent="0" />
        <mxCell id="GBpQVhTk9KxDPRQjgbmB-8" style="edgeStyle=orthogonalEdgeStyle;rounded=0;orthogonalLoop=1;jettySize=auto;html=1;exitX=1;exitY=0.5;exitDx=0;exitDy=0;entryX=0;entryY=0.5;entryDx=0;entryDy=0;" parent="1" source="GBpQVhTk9KxDPRQjgbmB-1" target="GBpQVhTk9KxDPRQjgbmB-3" edge="1">
          <mxGeometry relative="1" as="geometry" />
        </mxCell>
        <mxCell id="GBpQVhTk9KxDPRQjgbmB-9" style="edgeStyle=orthogonalEdgeStyle;rounded=0;orthogonalLoop=1;jettySize=auto;html=1;exitX=1;exitY=0.5;exitDx=0;exitDy=0;entryX=0;entryY=0.5;entryDx=0;entryDy=0;" parent="1" source="GBpQVhTk9KxDPRQjgbmB-1" target="GBpQVhTk9KxDPRQjgbmB-2" edge="1">
          <mxGeometry relative="1" as="geometry" />
        </mxCell>
        <mxCell id="GBpQVhTk9KxDPRQjgbmB-10" style="edgeStyle=orthogonalEdgeStyle;rounded=0;orthogonalLoop=1;jettySize=auto;html=1;exitX=1;exitY=0.5;exitDx=0;exitDy=0;entryX=0;entryY=0.5;entryDx=0;entryDy=0;" parent="1" source="GBpQVhTk9KxDPRQjgbmB-1" target="GBpQVhTk9KxDPRQjgbmB-4" edge="1">
          <mxGeometry relative="1" as="geometry" />
        </mxCell>
        <mxCell id="GBpQVhTk9KxDPRQjgbmB-11" style="edgeStyle=orthogonalEdgeStyle;rounded=0;orthogonalLoop=1;jettySize=auto;html=1;exitX=1;exitY=0.5;exitDx=0;exitDy=0;entryX=0;entryY=0.5;entryDx=0;entryDy=0;" parent="1" source="GBpQVhTk9KxDPRQjgbmB-1" target="GBpQVhTk9KxDPRQjgbmB-6" edge="1">
          <mxGeometry relative="1" as="geometry">
            <mxPoint x="254.16999999999996" y="-630" as="targetPoint" />
          </mxGeometry>
        </mxCell>
        <mxCell id="GBpQVhTk9KxDPRQjgbmB-12" style="edgeStyle=orthogonalEdgeStyle;rounded=0;orthogonalLoop=1;jettySize=auto;html=1;entryX=0;entryY=0.5;entryDx=0;entryDy=0;exitX=1;exitY=0.5;exitDx=0;exitDy=0;" parent="1" source="z8FbhvkW46ZyqsgCDVF_-14" target="GBpQVhTk9KxDPRQjgbmB-7" edge="1">
          <mxGeometry relative="1" as="geometry">
            <mxPoint x="444.16999999999996" y="-450" as="sourcePoint" />
          </mxGeometry>
        </mxCell>
        <mxCell id="SLsrdyDVqO_aE2-8c7I_-2" style="edgeStyle=orthogonalEdgeStyle;rounded=0;orthogonalLoop=1;jettySize=auto;html=1;exitX=1;exitY=0.5;exitDx=0;exitDy=0;entryX=0;entryY=0.5;entryDx=0;entryDy=0;" parent="1" source="GBpQVhTk9KxDPRQjgbmB-1" target="SLsrdyDVqO_aE2-8c7I_-1" edge="1">
          <mxGeometry relative="1" as="geometry" />
        </mxCell>
        <mxCell id="ySN6mnR29yhOzEf8zuOG-4" style="edgeStyle=orthogonalEdgeStyle;rounded=0;orthogonalLoop=1;jettySize=auto;html=1;exitX=1;exitY=0.5;exitDx=0;exitDy=0;entryX=0;entryY=0.5;entryDx=0;entryDy=0;" parent="1" source="z8FbhvkW46ZyqsgCDVF_-14" target="ySN6mnR29yhOzEf8zuOG-3" edge="1">
          <mxGeometry relative="1" as="geometry">
            <mxPoint x="444.16999999999996" y="-450" as="sourcePoint" />
          </mxGeometry>
        </mxCell>
        <mxCell id="HFXg7WAJ4wF_oNfZ3qlw-3" style="edgeStyle=orthogonalEdgeStyle;rounded=0;orthogonalLoop=1;jettySize=auto;html=1;entryX=0;entryY=0.5;entryDx=0;entryDy=0;exitX=1;exitY=0.5;exitDx=0;exitDy=0;" parent="1" source="z8FbhvkW46ZyqsgCDVF_-14" target="HFXg7WAJ4wF_oNfZ3qlw-1" edge="1">
          <mxGeometry relative="1" as="geometry">
            <mxPoint x="444.16999999999996" y="-450" as="sourcePoint" />
            <Array as="points">
              <mxPoint x="414.16999999999996" y="-430" />
              <mxPoint x="414.16999999999996" y="-430" />
            </Array>
          </mxGeometry>
        </mxCell>
        <mxCell id="z8FbhvkW46ZyqsgCDVF_-9" style="edgeStyle=orthogonalEdgeStyle;rounded=0;orthogonalLoop=1;jettySize=auto;html=1;exitX=0.5;exitY=1;exitDx=0;exitDy=0;entryX=0.5;entryY=0;entryDx=0;entryDy=0;fontSize=20;" parent="1" source="GBpQVhTk9KxDPRQjgbmB-1" target="z8FbhvkW46ZyqsgCDVF_-4" edge="1">
          <mxGeometry relative="1" as="geometry" />
        </mxCell>
        <mxCell id="z8FbhvkW46ZyqsgCDVF_-16" style="edgeStyle=orthogonalEdgeStyle;rounded=0;orthogonalLoop=1;jettySize=auto;html=1;exitX=1;exitY=0.5;exitDx=0;exitDy=0;entryX=0;entryY=0.5;entryDx=0;entryDy=0;fontSize=20;" parent="1" source="GBpQVhTk9KxDPRQjgbmB-1" target="z8FbhvkW46ZyqsgCDVF_-14" edge="1">
          <mxGeometry relative="1" as="geometry" />
        </mxCell>
        <mxCell id="DAb_E89MeZRaqiROTq5Q-5" style="edgeStyle=orthogonalEdgeStyle;rounded=0;orthogonalLoop=1;jettySize=auto;html=1;exitX=1;exitY=0.5;exitDx=0;exitDy=0;entryX=0;entryY=0.5;entryDx=0;entryDy=0;" parent="1" source="GBpQVhTk9KxDPRQjgbmB-1" target="DAb_E89MeZRaqiROTq5Q-4" edge="1">
          <mxGeometry relative="1" as="geometry" />
        </mxCell>
        <mxCell id="GBpQVhTk9KxDPRQjgbmB-1" value="微博舆情&lt;br&gt;大数据平台" style="rounded=1;whiteSpace=wrap;html=1;fontSize=15;fillColor=#008a00;strokeColor=#005700;fontColor=#ffffff;" parent="1" vertex="1">
          <mxGeometry x="124.16999999999999" y="-780" width="120" height="80" as="geometry" />
        </mxCell>
        <mxCell id="GBpQVhTk9KxDPRQjgbmB-15" style="edgeStyle=orthogonalEdgeStyle;rounded=0;orthogonalLoop=1;jettySize=auto;html=1;exitX=1;exitY=0.5;exitDx=0;exitDy=0;entryX=0;entryY=0.5;entryDx=0;entryDy=0;" parent="1" source="GBpQVhTk9KxDPRQjgbmB-2" target="GBpQVhTk9KxDPRQjgbmB-5" edge="1">
          <mxGeometry relative="1" as="geometry" />
        </mxCell>
        <mxCell id="GBpQVhTk9KxDPRQjgbmB-2" value="首页" style="rounded=1;whiteSpace=wrap;html=1;fontSize=15;fillColor=#d5e8d4;strokeColor=#82b366;" parent="1" vertex="1">
          <mxGeometry x="294.16999999999996" y="-910" width="120" height="40" as="geometry" />
        </mxCell>
        <mxCell id="GBpQVhTk9KxDPRQjgbmB-3" value="登录与注册" style="rounded=1;whiteSpace=wrap;html=1;fontSize=15;fillColor=#d5e8d4;strokeColor=#82b366;" parent="1" vertex="1">
          <mxGeometry x="294.16999999999996" y="-980" width="120" height="40" as="geometry" />
        </mxCell>
        <mxCell id="GBpQVhTk9KxDPRQjgbmB-16" style="edgeStyle=orthogonalEdgeStyle;rounded=0;orthogonalLoop=1;jettySize=auto;html=1;exitX=1;exitY=0.5;exitDx=0;exitDy=0;entryX=0;entryY=0.5;entryDx=0;entryDy=0;" parent="1" source="GBpQVhTk9KxDPRQjgbmB-4" target="GBpQVhTk9KxDPRQjgbmB-14" edge="1">
          <mxGeometry relative="1" as="geometry" />
        </mxCell>
        <mxCell id="z8FbhvkW46ZyqsgCDVF_-18" style="edgeStyle=orthogonalEdgeStyle;rounded=0;orthogonalLoop=1;jettySize=auto;html=1;exitX=1;exitY=0.5;exitDx=0;exitDy=0;entryX=0;entryY=0.5;entryDx=0;entryDy=0;fontSize=20;" parent="1" source="GBpQVhTk9KxDPRQjgbmB-4" target="z8FbhvkW46ZyqsgCDVF_-17" edge="1">
          <mxGeometry relative="1" as="geometry" />
        </mxCell>
        <mxCell id="0YCFfEILquXOQMnymZaD-18" style="edgeStyle=orthogonalEdgeStyle;rounded=0;orthogonalLoop=1;jettySize=auto;html=1;exitX=1;exitY=0.5;exitDx=0;exitDy=0;entryX=0;entryY=0.5;entryDx=0;entryDy=0;fontSize=15;" parent="1" source="GBpQVhTk9KxDPRQjgbmB-4" target="0YCFfEILquXOQMnymZaD-17" edge="1">
          <mxGeometry relative="1" as="geometry" />
        </mxCell>
        <mxCell id="GBpQVhTk9KxDPRQjgbmB-4" value="可视化" style="rounded=1;whiteSpace=wrap;html=1;fontSize=15;fillColor=#d5e8d4;strokeColor=#82b366;" parent="1" vertex="1">
          <mxGeometry x="294.16999999999996" y="-760" width="120" height="40" as="geometry" />
        </mxCell>
        <mxCell id="aK24O7FuVwJ1XTzpi6x3-2" style="edgeStyle=orthogonalEdgeStyle;rounded=0;orthogonalLoop=1;jettySize=auto;html=1;exitX=1;exitY=0.5;exitDx=0;exitDy=0;entryX=0;entryY=0.5;entryDx=0;entryDy=0;" parent="1" source="GBpQVhTk9KxDPRQjgbmB-5" target="aK24O7FuVwJ1XTzpi6x3-1" edge="1">
          <mxGeometry relative="1" as="geometry" />
        </mxCell>
        <mxCell id="DAb_E89MeZRaqiROTq5Q-2" style="edgeStyle=orthogonalEdgeStyle;rounded=0;orthogonalLoop=1;jettySize=auto;html=1;exitX=1;exitY=0.5;exitDx=0;exitDy=0;entryX=0;entryY=0.5;entryDx=0;entryDy=0;" parent="1" source="GBpQVhTk9KxDPRQjgbmB-5" target="DAb_E89MeZRaqiROTq5Q-1" edge="1">
          <mxGeometry relative="1" as="geometry" />
        </mxCell>
        <mxCell id="GBpQVhTk9KxDPRQjgbmB-5" value="话题卡片" style="rounded=1;whiteSpace=wrap;html=1;fontSize=15;fillColor=#d5e8d4;strokeColor=#82b366;" parent="1" vertex="1">
          <mxGeometry x="474.16999999999996" y="-980" width="120" height="40" as="geometry" />
        </mxCell>
        <mxCell id="GBpQVhTk9KxDPRQjgbmB-18" style="edgeStyle=orthogonalEdgeStyle;rounded=0;orthogonalLoop=1;jettySize=auto;html=1;exitX=1;exitY=0.5;exitDx=0;exitDy=0;entryX=0;entryY=0.5;entryDx=0;entryDy=0;" parent="1" source="GBpQVhTk9KxDPRQjgbmB-6" target="GBpQVhTk9KxDPRQjgbmB-13" edge="1">
          <mxGeometry relative="1" as="geometry" />
        </mxCell>
        <mxCell id="GBpQVhTk9KxDPRQjgbmB-6" value="词云" style="rounded=1;whiteSpace=wrap;html=1;fontSize=15;fillColor=#d5e8d4;strokeColor=#82b366;" parent="1" vertex="1">
          <mxGeometry x="294.16999999999996" y="-660" width="120" height="40" as="geometry" />
        </mxCell>
        <mxCell id="GBpQVhTk9KxDPRQjgbmB-7" value="身份证识别" style="rounded=1;whiteSpace=wrap;html=1;fontSize=15;fillColor=#fff2cc;strokeColor=#d6b656;" parent="1" vertex="1">
          <mxGeometry x="484.16999999999996" y="-520" width="120" height="40" as="geometry" />
        </mxCell>
        <mxCell id="GBpQVhTk9KxDPRQjgbmB-13" value="文章词云/评论词云" style="rounded=1;whiteSpace=wrap;html=1;fontSize=15;fillColor=#d5e8d4;strokeColor=#82b366;" parent="1" vertex="1">
          <mxGeometry x="474.16999999999996" y="-660" width="145" height="40" as="geometry" />
        </mxCell>
        <mxCell id="EjBGtmn64PD8jTdNR0ln-2" style="edgeStyle=orthogonalEdgeStyle;rounded=0;orthogonalLoop=1;jettySize=auto;html=1;exitX=1;exitY=0.5;exitDx=0;exitDy=0;entryX=0;entryY=0.5;entryDx=0;entryDy=0;" parent="1" source="GBpQVhTk9KxDPRQjgbmB-14" target="EjBGtmn64PD8jTdNR0ln-1" edge="1">
          <mxGeometry relative="1" as="geometry" />
        </mxCell>
        <mxCell id="GBpQVhTk9KxDPRQjgbmB-14" value="Echarts分析大屏" style="rounded=1;whiteSpace=wrap;html=1;fontSize=15;fillColor=#d5e8d4;strokeColor=#82b366;" parent="1" vertex="1">
          <mxGeometry x="479.16999999999996" y="-810" width="120" height="40" as="geometry" />
        </mxCell>
        <mxCell id="SLsrdyDVqO_aE2-8c7I_-6" value="" style="edgeStyle=orthogonalEdgeStyle;rounded=0;orthogonalLoop=1;jettySize=auto;html=1;entryX=0.5;entryY=1;entryDx=0;entryDy=0;" parent="1" source="SLsrdyDVqO_aE2-8c7I_-1" target="GBpQVhTk9KxDPRQjgbmB-5" edge="1">
          <mxGeometry relative="1" as="geometry">
            <mxPoint x="484.16999999999996" y="-920" as="targetPoint" />
          </mxGeometry>
        </mxCell>
        <mxCell id="SLsrdyDVqO_aE2-8c7I_-1" value="话题搜索" style="rounded=1;whiteSpace=wrap;html=1;fontSize=15;fillColor=#d5e8d4;strokeColor=#82b366;" parent="1" vertex="1">
          <mxGeometry x="294.16999999999996" y="-850" width="120" height="40" as="geometry" />
        </mxCell>
        <mxCell id="ySN6mnR29yhOzEf8zuOG-1" value="百度AI图像识别" style="rounded=1;whiteSpace=wrap;html=1;fontSize=15;fillColor=#fff2cc;strokeColor=#d6b656;" parent="1" vertex="1">
          <mxGeometry x="654.17" y="-520" width="120" height="40" as="geometry" />
        </mxCell>
        <mxCell id="ySN6mnR29yhOzEf8zuOG-2" style="edgeStyle=orthogonalEdgeStyle;rounded=0;orthogonalLoop=1;jettySize=auto;html=1;exitX=1;exitY=0.5;exitDx=0;exitDy=0;" parent="1" source="GBpQVhTk9KxDPRQjgbmB-7" edge="1">
          <mxGeometry relative="1" as="geometry">
            <mxPoint x="614.17" y="-560" as="sourcePoint" />
            <mxPoint x="654.17" y="-500" as="targetPoint" />
          </mxGeometry>
        </mxCell>
        <mxCell id="EjBGtmn64PD8jTdNR0ln-4" style="edgeStyle=orthogonalEdgeStyle;rounded=0;orthogonalLoop=1;jettySize=auto;html=1;exitX=1;exitY=0.5;exitDx=0;exitDy=0;entryX=0;entryY=0.5;entryDx=0;entryDy=0;" parent="1" source="ySN6mnR29yhOzEf8zuOG-3" target="EjBGtmn64PD8jTdNR0ln-3" edge="1">
          <mxGeometry relative="1" as="geometry" />
        </mxCell>
        <mxCell id="ySN6mnR29yhOzEf8zuOG-3" value="修改个人信息" style="rounded=1;whiteSpace=wrap;html=1;fontSize=15;fillColor=#d5e8d4;strokeColor=#82b366;" parent="1" vertex="1">
          <mxGeometry x="484.16999999999996" y="-390" width="120" height="40" as="geometry" />
        </mxCell>
        <mxCell id="HFXg7WAJ4wF_oNfZ3qlw-4" style="edgeStyle=orthogonalEdgeStyle;rounded=0;orthogonalLoop=1;jettySize=auto;html=1;exitX=1;exitY=0.5;exitDx=0;exitDy=0;entryX=0;entryY=0.5;entryDx=0;entryDy=0;" parent="1" source="HFXg7WAJ4wF_oNfZ3qlw-1" target="HFXg7WAJ4wF_oNfZ3qlw-2" edge="1">
          <mxGeometry relative="1" as="geometry" />
        </mxCell>
        <mxCell id="HFXg7WAJ4wF_oNfZ3qlw-1" value="充值" style="rounded=1;whiteSpace=wrap;html=1;fontSize=15;fillColor=#fff2cc;strokeColor=#d6b656;" parent="1" vertex="1">
          <mxGeometry x="484.16999999999996" y="-450" width="120" height="40" as="geometry" />
        </mxCell>
        <mxCell id="HFXg7WAJ4wF_oNfZ3qlw-2" value="支付宝沙箱支付" style="rounded=1;whiteSpace=wrap;html=1;fontSize=15;fillColor=#fff2cc;strokeColor=#d6b656;" parent="1" vertex="1">
          <mxGeometry x="654.17" y="-450" width="120" height="40" as="geometry" />
        </mxCell>
        <mxCell id="EjBGtmn64PD8jTdNR0ln-1" value="水滴、动态柱状图、饼图、折线图.." style="rounded=1;whiteSpace=wrap;html=1;fontSize=15;fillColor=#d5e8d4;strokeColor=#82b366;" parent="1" vertex="1">
          <mxGeometry x="639.17" y="-812.5" width="145" height="45" as="geometry" />
        </mxCell>
        <mxCell id="EjBGtmn64PD8jTdNR0ln-3" value="阿里短信验证码修改密码" style="rounded=1;whiteSpace=wrap;html=1;fontSize=15;fillColor=#fff2cc;strokeColor=#d6b656;" parent="1" vertex="1">
          <mxGeometry x="654.17" y="-390" width="120" height="40" as="geometry" />
        </mxCell>
        <mxCell id="z8FbhvkW46ZyqsgCDVF_-10" style="edgeStyle=orthogonalEdgeStyle;rounded=0;orthogonalLoop=1;jettySize=auto;html=1;exitX=0.5;exitY=1;exitDx=0;exitDy=0;entryX=0.5;entryY=0;entryDx=0;entryDy=0;fontSize=20;" parent="1" source="z8FbhvkW46ZyqsgCDVF_-4" target="z8FbhvkW46ZyqsgCDVF_-5" edge="1">
          <mxGeometry relative="1" as="geometry" />
        </mxCell>
        <mxCell id="z8FbhvkW46ZyqsgCDVF_-11" style="edgeStyle=orthogonalEdgeStyle;rounded=0;orthogonalLoop=1;jettySize=auto;html=1;exitX=0.5;exitY=1;exitDx=0;exitDy=0;entryX=0.5;entryY=0;entryDx=0;entryDy=0;fontSize=20;" parent="1" source="z8FbhvkW46ZyqsgCDVF_-4" target="z8FbhvkW46ZyqsgCDVF_-6" edge="1">
          <mxGeometry relative="1" as="geometry" />
        </mxCell>
        <mxCell id="z8FbhvkW46ZyqsgCDVF_-12" style="edgeStyle=orthogonalEdgeStyle;rounded=0;orthogonalLoop=1;jettySize=auto;html=1;exitX=0.5;exitY=1;exitDx=0;exitDy=0;entryX=0.5;entryY=0;entryDx=0;entryDy=0;fontSize=20;" parent="1" source="z8FbhvkW46ZyqsgCDVF_-4" target="z8FbhvkW46ZyqsgCDVF_-7" edge="1">
          <mxGeometry relative="1" as="geometry" />
        </mxCell>
        <mxCell id="z8FbhvkW46ZyqsgCDVF_-4" value="爬虫模块" style="rounded=1;whiteSpace=wrap;html=1;fontSize=15;fillColor=#fad9d5;strokeColor=#ae4132;" parent="1" vertex="1">
          <mxGeometry x="54.16999999999999" y="-640" width="120" height="40" as="geometry" />
        </mxCell>
        <mxCell id="z8FbhvkW46ZyqsgCDVF_-5" value="微博话题" style="rounded=1;whiteSpace=wrap;html=1;fontSize=15;fillColor=#fad9d5;strokeColor=#ae4132;" parent="1" vertex="1">
          <mxGeometry x="49.99999999999999" y="-550" width="30" height="140" as="geometry" />
        </mxCell>
        <mxCell id="z8FbhvkW46ZyqsgCDVF_-6" value="对应文章" style="rounded=1;whiteSpace=wrap;html=1;fontSize=15;fillColor=#fad9d5;strokeColor=#ae4132;" parent="1" vertex="1">
          <mxGeometry x="99.99999999999997" y="-550" width="30" height="140" as="geometry" />
        </mxCell>
        <mxCell id="z8FbhvkW46ZyqsgCDVF_-7" value="对应评论" style="rounded=1;whiteSpace=wrap;html=1;fontSize=15;fillColor=#fad9d5;strokeColor=#ae4132;" parent="1" vertex="1">
          <mxGeometry x="159.99999999999997" y="-550" width="30" height="140" as="geometry" />
        </mxCell>
        <mxCell id="z8FbhvkW46ZyqsgCDVF_-14" value="设置" style="rounded=1;whiteSpace=wrap;html=1;fontSize=15;fillColor=#d5e8d4;strokeColor=#82b366;" parent="1" vertex="1">
          <mxGeometry x="294.16999999999996" y="-450" width="120" height="40" as="geometry" />
        </mxCell>
        <mxCell id="z8FbhvkW46ZyqsgCDVF_-17" value="舆情旭日图、评论热点图" style="rounded=1;whiteSpace=wrap;html=1;fontSize=15;fillColor=#d5e8d4;strokeColor=#82b366;" parent="1" vertex="1">
          <mxGeometry x="479.16999999999996" y="-710" width="255" height="40" as="geometry" />
        </mxCell>
        <mxCell id="aK24O7FuVwJ1XTzpi6x3-1" value="话题统计信息" style="rounded=1;whiteSpace=wrap;html=1;fontSize=15;fillColor=#fff2cc;strokeColor=#d6b656;" parent="1" vertex="1">
          <mxGeometry x="651.67" y="-980" width="120" height="40" as="geometry" />
        </mxCell>
        <mxCell id="DAb_E89MeZRaqiROTq5Q-1" value="评论情感分析" style="rounded=1;whiteSpace=wrap;html=1;fontSize=15;fillColor=#1ba1e2;strokeColor=#006EAF;fontColor=#ffffff;" parent="1" vertex="1">
          <mxGeometry x="651.67" y="-1040" width="120" height="40" as="geometry" />
        </mxCell>
        <mxCell id="DAb_E89MeZRaqiROTq5Q-3" value="评价情感分析" style="rounded=1;whiteSpace=wrap;html=1;fontSize=15;fillColor=#1ba1e2;strokeColor=#006EAF;fontColor=#ffffff;" parent="1" vertex="1">
          <mxGeometry x="474.16999999999996" y="-590" width="140" height="40" as="geometry" />
        </mxCell>
        <mxCell id="DAb_E89MeZRaqiROTq5Q-6" style="edgeStyle=orthogonalEdgeStyle;rounded=0;orthogonalLoop=1;jettySize=auto;html=1;exitX=1;exitY=0.5;exitDx=0;exitDy=0;entryX=0;entryY=0.5;entryDx=0;entryDy=0;" parent="1" source="DAb_E89MeZRaqiROTq5Q-4" target="DAb_E89MeZRaqiROTq5Q-3" edge="1">
          <mxGeometry relative="1" as="geometry" />
        </mxCell>
        <mxCell id="DAb_E89MeZRaqiROTq5Q-4" value="深度学习&lt;br&gt;情感分析模型" style="rounded=1;whiteSpace=wrap;html=1;fontSize=15;fillColor=#1ba1e2;strokeColor=#006EAF;fontColor=#ffffff;" parent="1" vertex="1">
          <mxGeometry x="294.16999999999996" y="-590" width="120" height="40" as="geometry" />
        </mxCell>
        <mxCell id="dzNJQtH1lF4GbQgVGkNk-4" style="edgeStyle=orthogonalEdgeStyle;rounded=0;orthogonalLoop=1;jettySize=auto;html=1;exitX=1;exitY=0.5;exitDx=0;exitDy=0;entryX=0;entryY=0.5;entryDx=0;entryDy=0;fontSize=15;" parent="1" source="dzNJQtH1lF4GbQgVGkNk-1" target="dzNJQtH1lF4GbQgVGkNk-2" edge="1">
          <mxGeometry relative="1" as="geometry" />
        </mxCell>
        <mxCell id="dzNJQtH1lF4GbQgVGkNk-1" value="评分数据集" style="rounded=1;whiteSpace=wrap;html=1;fontSize=15;fillColor=#d5e8d4;strokeColor=#82b366;" parent="1" vertex="1">
          <mxGeometry x="193.5" y="640" width="120" height="60" as="geometry" />
        </mxCell>
        <mxCell id="dzNJQtH1lF4GbQgVGkNk-5" style="edgeStyle=orthogonalEdgeStyle;rounded=0;orthogonalLoop=1;jettySize=auto;html=1;exitX=1;exitY=0.5;exitDx=0;exitDy=0;entryX=0;entryY=0.5;entryDx=0;entryDy=0;fontSize=15;" parent="1" source="dzNJQtH1lF4GbQgVGkNk-2" target="dzNJQtH1lF4GbQgVGkNk-3" edge="1">
          <mxGeometry relative="1" as="geometry" />
        </mxCell>
        <mxCell id="dzNJQtH1lF4GbQgVGkNk-2" value="协同过滤" style="rounded=1;whiteSpace=wrap;html=1;fontSize=15;fillColor=#d5e8d4;strokeColor=#82b366;" parent="1" vertex="1">
          <mxGeometry x="378.5" y="640" width="120" height="60" as="geometry" />
        </mxCell>
        <mxCell id="dzNJQtH1lF4GbQgVGkNk-14" style="edgeStyle=orthogonalEdgeStyle;rounded=0;orthogonalLoop=1;jettySize=auto;html=1;exitX=0.5;exitY=1;exitDx=0;exitDy=0;fontSize=16;" parent="1" source="dzNJQtH1lF4GbQgVGkNk-3" target="dzNJQtH1lF4GbQgVGkNk-9" edge="1">
          <mxGeometry relative="1" as="geometry">
            <Array as="points">
              <mxPoint x="613.5" y="950" />
            </Array>
          </mxGeometry>
        </mxCell>
        <mxCell id="dzNJQtH1lF4GbQgVGkNk-3" value="推荐" style="rounded=1;whiteSpace=wrap;html=1;fontSize=15;fillColor=#ffe6cc;strokeColor=#d79b00;" parent="1" vertex="1">
          <mxGeometry x="553.5" y="640" width="120" height="60" as="geometry" />
        </mxCell>
        <mxCell id="dzNJQtH1lF4GbQgVGkNk-12" style="edgeStyle=orthogonalEdgeStyle;rounded=0;orthogonalLoop=1;jettySize=auto;html=1;entryX=0.5;entryY=1;entryDx=0;entryDy=0;fontSize=16;" parent="1" source="dzNJQtH1lF4GbQgVGkNk-6" target="dzNJQtH1lF4GbQgVGkNk-1" edge="1">
          <mxGeometry relative="1" as="geometry">
            <Array as="points">
              <mxPoint x="192.5" y="730" />
              <mxPoint x="253.5" y="730" />
            </Array>
          </mxGeometry>
        </mxCell>
        <mxCell id="dzNJQtH1lF4GbQgVGkNk-6" value="5分" style="aspect=fixed;html=1;points=[];align=center;image;fontSize=16;image=img/lib/azure2/general/Heart.svg;" parent="1" vertex="1">
          <mxGeometry x="170.82999999999998" y="770" width="42.67" height="40" as="geometry" />
        </mxCell>
        <mxCell id="dzNJQtH1lF4GbQgVGkNk-13" style="edgeStyle=orthogonalEdgeStyle;rounded=0;orthogonalLoop=1;jettySize=auto;html=1;entryX=0.5;entryY=1;entryDx=0;entryDy=0;fontSize=16;" parent="1" source="dzNJQtH1lF4GbQgVGkNk-7" target="dzNJQtH1lF4GbQgVGkNk-1" edge="1">
          <mxGeometry relative="1" as="geometry">
            <Array as="points">
              <mxPoint x="313.5" y="730" />
              <mxPoint x="253.5" y="730" />
            </Array>
          </mxGeometry>
        </mxCell>
        <mxCell id="dzNJQtH1lF4GbQgVGkNk-7" value="0~5分" style="shape=image;html=1;verticalAlign=top;verticalLabelPosition=bottom;labelBackgroundColor=#ffffff;imageAspect=0;aspect=fixed;image=https://cdn1.iconfinder.com/data/icons/filled-line-christmas-icons/75/_star-128.png;fontSize=15;" parent="1" vertex="1">
          <mxGeometry x="283.5" y="760" width="60" height="60" as="geometry" />
        </mxCell>
        <mxCell id="dzNJQtH1lF4GbQgVGkNk-10" value="" style="edgeStyle=orthogonalEdgeStyle;rounded=0;orthogonalLoop=1;jettySize=auto;html=1;fontSize=16;" parent="1" source="dzNJQtH1lF4GbQgVGkNk-9" edge="1">
          <mxGeometry relative="1" as="geometry">
            <mxPoint x="313.5" y="850" as="targetPoint" />
          </mxGeometry>
        </mxCell>
        <mxCell id="dzNJQtH1lF4GbQgVGkNk-11" style="edgeStyle=orthogonalEdgeStyle;rounded=0;orthogonalLoop=1;jettySize=auto;html=1;fontSize=16;" parent="1" source="dzNJQtH1lF4GbQgVGkNk-9" edge="1">
          <mxGeometry relative="1" as="geometry">
            <mxPoint x="193.5" y="850" as="targetPoint" />
          </mxGeometry>
        </mxCell>
        <mxCell id="dzNJQtH1lF4GbQgVGkNk-9" value="用户" style="sketch=0;pointerEvents=1;shadow=0;dashed=0;html=1;strokeColor=none;labelPosition=center;verticalLabelPosition=bottom;verticalAlign=top;outlineConnect=0;align=center;shape=mxgraph.office.users.user;fillColor=#7FBA42;fontSize=16;" parent="1" vertex="1">
          <mxGeometry x="224.16000000000003" y="900" width="64.67" height="70" as="geometry" />
        </mxCell>
        <mxCell id="dzNJQtH1lF4GbQgVGkNk-17" value="" style="edgeStyle=orthogonalEdgeStyle;rounded=0;orthogonalLoop=1;jettySize=auto;html=1;fontSize=16;" parent="1" target="dzNJQtH1lF4GbQgVGkNk-1" edge="1">
          <mxGeometry relative="1" as="geometry">
            <mxPoint x="253.82999999999998" y="600" as="sourcePoint" />
          </mxGeometry>
        </mxCell>
        <mxCell id="dzNJQtH1lF4GbQgVGkNk-16" value="N个其他用户的评分" style="sketch=0;pointerEvents=1;shadow=0;dashed=0;html=1;strokeColor=none;labelPosition=center;verticalLabelPosition=bottom;verticalAlign=top;outlineConnect=0;align=center;shape=mxgraph.office.users.users;fillColor=#7FBA42;fontSize=16;" parent="1" vertex="1">
          <mxGeometry x="211" y="480" width="85" height="70" as="geometry" />
        </mxCell>
        <mxCell id="0YCFfEILquXOQMnymZaD-11" value="" style="edgeStyle=orthogonalEdgeStyle;rounded=0;orthogonalLoop=1;jettySize=auto;html=1;fontSize=15;" parent="1" source="0YCFfEILquXOQMnymZaD-1" target="0YCFfEILquXOQMnymZaD-2" edge="1">
          <mxGeometry relative="1" as="geometry" />
        </mxCell>
        <mxCell id="0YCFfEILquXOQMnymZaD-1" value="爬虫" style="shape=image;html=1;verticalAlign=top;verticalLabelPosition=bottom;labelBackgroundColor=#ffffff;imageAspect=0;aspect=fixed;image=https://cdn2.iconfinder.com/data/icons/free-solid-halloween-icons/24/Spider-128.png;fontSize=15;" parent="1" vertex="1">
          <mxGeometry x="170.82999999999998" y="50" width="70" height="70" as="geometry" />
        </mxCell>
        <mxCell id="0YCFfEILquXOQMnymZaD-12" value="" style="edgeStyle=orthogonalEdgeStyle;rounded=0;orthogonalLoop=1;jettySize=auto;html=1;fontSize=15;" parent="1" source="0YCFfEILquXOQMnymZaD-2" target="0YCFfEILquXOQMnymZaD-6" edge="1">
          <mxGeometry relative="1" as="geometry" />
        </mxCell>
        <mxCell id="0YCFfEILquXOQMnymZaD-2" value="话题、文章、评论" style="rounded=1;whiteSpace=wrap;html=1;fontSize=15;fillColor=#ffe6cc;strokeColor=#d79b00;" parent="1" vertex="1">
          <mxGeometry x="140" y="180" width="131.66" height="60" as="geometry" />
        </mxCell>
        <mxCell id="0YCFfEILquXOQMnymZaD-14" value="" style="edgeStyle=orthogonalEdgeStyle;rounded=0;orthogonalLoop=1;jettySize=auto;html=1;fontSize=15;" parent="1" source="0YCFfEILquXOQMnymZaD-5" target="0YCFfEILquXOQMnymZaD-7" edge="1">
          <mxGeometry relative="1" as="geometry" />
        </mxCell>
        <mxCell id="0YCFfEILquXOQMnymZaD-5" value="MySQL数据库" style="rounded=1;whiteSpace=wrap;html=1;fontSize=15;fillColor=#dae8fc;strokeColor=#6c8ebf;" parent="1" vertex="1">
          <mxGeometry x="384.67" y="280" width="120" height="60" as="geometry" />
        </mxCell>
        <mxCell id="0YCFfEILquXOQMnymZaD-13" value="" style="edgeStyle=orthogonalEdgeStyle;rounded=0;orthogonalLoop=1;jettySize=auto;html=1;fontSize=15;" parent="1" source="0YCFfEILquXOQMnymZaD-6" target="0YCFfEILquXOQMnymZaD-5" edge="1">
          <mxGeometry relative="1" as="geometry" />
        </mxCell>
        <mxCell id="0YCFfEILquXOQMnymZaD-6" value="情感分析" style="rounded=1;whiteSpace=wrap;html=1;fontSize=15;fillColor=#ffe6cc;strokeColor=#d79b00;" parent="1" vertex="1">
          <mxGeometry x="140" y="280" width="131.66" height="60" as="geometry" />
        </mxCell>
        <mxCell id="0YCFfEILquXOQMnymZaD-15" value="" style="edgeStyle=orthogonalEdgeStyle;rounded=0;orthogonalLoop=1;jettySize=auto;html=1;fontSize=15;" parent="1" source="0YCFfEILquXOQMnymZaD-7" target="0YCFfEILquXOQMnymZaD-8" edge="1">
          <mxGeometry relative="1" as="geometry" />
        </mxCell>
        <mxCell id="0YCFfEILquXOQMnymZaD-7" value="FLASK 后端" style="rounded=1;whiteSpace=wrap;html=1;fontSize=15;fillColor=#dae8fc;strokeColor=#6c8ebf;" parent="1" vertex="1">
          <mxGeometry x="384.67" y="180" width="120" height="60" as="geometry" />
        </mxCell>
        <mxCell id="0YCFfEILquXOQMnymZaD-8" value="Vue前端" style="rounded=1;whiteSpace=wrap;html=1;fontSize=15;fillColor=#dae8fc;strokeColor=#6c8ebf;" parent="1" vertex="1">
          <mxGeometry x="384.67" y="60" width="120" height="60" as="geometry" />
        </mxCell>
        <mxCell id="0YCFfEILquXOQMnymZaD-16" style="edgeStyle=orthogonalEdgeStyle;rounded=0;orthogonalLoop=1;jettySize=auto;html=1;entryX=1;entryY=0.5;entryDx=0;entryDy=0;fontSize=15;" parent="1" source="0YCFfEILquXOQMnymZaD-10" target="0YCFfEILquXOQMnymZaD-8" edge="1">
          <mxGeometry relative="1" as="geometry" />
        </mxCell>
        <mxCell id="0YCFfEILquXOQMnymZaD-10" value="浏览器访问" style="points=[];aspect=fixed;html=1;align=center;shadow=0;dashed=0;image;image=img/lib/allied_telesis/computer_and_terminals/Personal_Computer.svg;fontSize=15;" parent="1" vertex="1">
          <mxGeometry x="620" y="52.889999999999986" width="54.76" height="74.21" as="geometry" />
        </mxCell>
        <mxCell id="0YCFfEILquXOQMnymZaD-17" value="话题关键词提取、观点提取分析图" style="rounded=1;whiteSpace=wrap;html=1;fontSize=15;fillColor=#d5e8d4;strokeColor=#82b366;" parent="1" vertex="1">
          <mxGeometry x="479.16999999999996" y="-760" width="255" height="40" as="geometry" />
        </mxCell>
      </root>
    </mxGraphModel>
  </diagram>
</mxfile>
